<?xml version="1.0" encoding="iso-8859-1"?>
<!-- Generator: Adobe Illustrator 18.0.0, SVG Export Plug-In . SVG Version: 6.00 Build 0)  -->
<!DOCTYPE svg PUBLIC "-//W3C//DTD SVG 1.1//EN" "http://www.w3.org/Graphics/SVG/1.1/DTD/svg11.dtd">
<svg version="1.1" id="Capa_1" xmlns="http://www.w3.org/2000/svg" xmlns:xlink="http://www.w3.org/1999/xlink" x="0px" y="0px"
	 viewBox="0 0 57.297 57.297" style="enable-background:new 0 0 57.297 57.297;" xml:space="preserve">
<g>
	<circle style="fill:#F29C1F;" cx="15.459" cy="52.864" r="2.5"/>
	<circle style="fill:#F18D46;" cx="4.853" cy="50.743" r="2.5"/>
	<circle style="fill:#F0C419;" cx="10.51" cy="46.5" r="1.5"/>
	<circle style="fill:#DC9628;" cx="17.581" cy="46.5" r="1.5"/>
	<circle style="fill:#F29C1F;" cx="53.581" cy="7.893" r="2.5"/>
	<circle style="fill:#F18D46;" cx="51.459" cy="18.5" r="2.5"/>
	<circle style="fill:#F0C419;" cx="47.217" cy="12.843" r="1.5"/>
	<circle style="fill:#DC9628;" cx="47.217" cy="5.772" r="1.5"/>
	<circle style="fill:#FBD490;" cx="30.081" cy="5" r="1.5"/>
	<circle style="fill:#FBD490;" cx="15.081" cy="5" r="1.5"/>
	<circle style="fill:#FBD490;" cx="5.081" cy="15" r="1.5"/>
	<circle style="fill:#FBD490;" cx="4.081" cy="29" r="1.5"/>
	<circle style="fill:#FBD490;" cx="15.081" cy="39" r="1.5"/>
	<circle style="fill:#FBD490;" cx="29.081" cy="39" r="1.5"/>
	<circle style="fill:#FBD490;" cx="40.081" cy="30" r="1.5"/>
	<circle style="fill:#FBD490;" cx="40.081" cy="15" r="1.5"/>
	<path style="fill:#A5A5A4;" d="M56.035,57.297c-0.256,0-0.512-0.098-0.707-0.293L40.031,41.707c-0.391-0.391-0.391-1.023,0-1.414
		s1.023-0.391,1.414,0L56.742,55.59c0.391,0.391,0.391,1.023,0,1.414C56.546,57.199,56.291,57.297,56.035,57.297z"/>
	<path style="fill:#E64C3C;" d="M41.166,40.572l-0.856,0.856c-1.167,1.167-3.076,1.167-4.243,0L14.815,20.175
		c-1.167-1.167-1.167-3.076,0-4.243l0.856-0.856c1.167-1.167,3.076-1.167,4.243,0l21.253,21.253
		C42.333,37.496,42.333,39.405,41.166,40.572z"/>
	<path style="fill:#7D6599;" d="M15.243,15.505c-1.402,1.402-1.402,3.697,0,5.099l3.399,3.399l5.099-5.099l-3.399-3.399
		C18.94,14.102,16.645,14.102,15.243,15.505z"/>
	<path style="fill:#F0C419;" d="M36.868,6.279l-8.251,3.922c-0.692,0.329-1.516-0.013-1.773-0.734l-3.061-8.607
		c-0.407-1.146-2.028-1.146-2.436,0l-3.061,8.607c-0.257,0.722-1.081,1.063-1.773,0.734L8.264,6.279
		C7.165,5.757,6.019,6.903,6.541,8.001l3.922,8.251c0.329,0.692-0.013,1.516-0.734,1.773l-8.607,3.061
		c-1.146,0.407-1.146,2.028,0,2.436l8.607,3.061c0.722,0.257,1.063,1.081,0.734,1.773l-3.922,8.251
		c-0.522,1.099,0.624,2.244,1.722,1.722l8.25-3.922c0.692-0.329,1.516,0.013,1.773,0.734l3.061,7c0.407,1.146,2.028,1.146,2.436,0
		l3.061-7.001c0.257-0.722,1.081-1.063,1.773-0.734l0.816,0.388l-14.19-14.19c-1.402-1.402-1.402-3.697,0-5.099s3.697-1.402,5.099,0
		l15.663,15.663l-1.337-2.813c-0.329-0.692,0.013-1.516,0.734-1.773l6.819-3.061c1.146-0.407,1.146-2.028,0-2.436l-6.819-3.061
		c-0.722-0.257-1.063-1.081-0.734-1.773l3.922-8.25C39.112,6.903,37.966,5.757,36.868,6.279z"/>
</g>
<g>
</g>
<g>
</g>
<g>
</g>
<g>
</g>
<g>
</g>
<g>
</g>
<g>
</g>
<g>
</g>
<g>
</g>
<g>
</g>
<g>
</g>
<g>
</g>
<g>
</g>
<g>
</g>
<g>
</g>
</svg>
